<svg xmlns="http://www.w3.org/2000/svg" viewBox="0 0 512 512"><defs><style>.cls-1{fill:#092261;}.cls-2{fill:#fff;}</style></defs><title>skateboarding-pictogram</title><g id="Layer_2" data-name="Layer 2"><g id="Layer_1-2" data-name="Layer 1"><g id="skateboarding-pictogram"><circle class="cls-1" cx="255.11" cy="255.11" r="233.69"/><path class="cls-2" d="M256,512A256,256,0,0,1,75,75,256,256,0,0,1,437,437,254.33,254.33,0,0,1,256,512Zm0-490.22A234.22,234.22,0,0,0,90.38,421.62,234.22,234.22,0,0,0,421.62,90.38,232.69,232.69,0,0,0,256,21.78Z"/><path class="cls-2" d="M407.1,446.57c-.85-.56-86.76-56.56-187.48-95.05-106.75-40.76-197.3-47.93-198.2-48l1.1-14.73c.92.07,93.47,7.36,202.34,48.94,102.27,39.06,189.44,95.93,190.31,96.49Z"/><circle class="cls-2" cx="204.09" cy="151.29" r="26.09" transform="translate(-49.93 147.89) rotate(-35.78)"/><ellipse class="cls-2" cx="259.77" cy="442.96" rx="10.52" ry="8.32" transform="translate(-238.71 566.31) rotate(-73.51)"/><ellipse class="cls-2" cx="359.45" cy="380.86" rx="10.52" ry="8.32" transform="matrix(0.28, -0.96, 0.96, 0.28, -107.77, 617.42)"/><path class="cls-2" d="M391.06,183.1h0l-59.33-27.95-56.1-10.73a19.42,19.42,0,1,0-14.37,36.08,19.08,19.08,0,0,0,5.47,1.3h0c.57,0,1.14.08,1.72.08a19.09,19.09,0,0,0,3.11-.25l55.15-1.94L385.9,198.6h0A8.19,8.19,0,1,0,391,183.1Z"/><path class="cls-2" d="M221.33,113.24l9.82,20.62s6.22-4.34,12.18-5a91.72,91.72,0,0,1,17.83.21L238.28,97.71l-45-44.46a7.14,7.14,0,0,0-10.1,10.1l.21.2Z"/><path class="cls-2" d="M377.35,332.26c-4.34-11.9-24-10.09-28-9.43-5.05.87-14.75,7.37-14.75,7.37L292,279.47l17.15-20.8a23,23,0,0,0,1.79-2.16h0a24.46,24.46,0,1,0-42.87-22.3l-36.92,65.41a60.47,60.47,0,0,0-2.54,6.19,84.77,84.77,0,0,0-1.69,8.48L215.21,401,208,405.29s-7.36,4.17-10.57,5.55-11.88,3.33-13.75,4.58-11.53,9,0,16.95c12.57,8.64,43.87,5.65,54.54,2.29a67.83,67.83,0,0,0,14.1-6.46l111-69.8S381.14,342.69,377.35,332.26ZM236.5,388.41l18.22-68.54L274,298.74l43.94,41.39Z"/></g></g></g></svg>